<svg xmlns="http://www.w3.org/2000/svg" viewBox="0 0 600 400">
  <!-- רקע -->
  <rect width="600" height="400" fill="#f8fafc" />
  
  <!-- הדמיית דף נחיתה עסקי -->
  <rect x="50" y="50" width="500" height="300" rx="8" fill="#ffffff" stroke="#e2e8f0" stroke-width="2" />
  
  <!-- חלק עליון - סרגל ניווט -->
  <rect x="50" y="50" width="500" height="60" rx="8" fill="#2563eb" />
  <circle cx="90" cy="80" r="15" fill="#ffffff" />
  <rect x="200" y="73" width="40" height="14" rx="7" fill="#ffffff" fill-opacity="0.7" />
  <rect x="260" y="73" width="40" height="14" rx="7" fill="#ffffff" fill-opacity="0.7" />
  <rect x="320" y="73" width="40" height="14" rx="7" fill="#ffffff" fill-opacity="0.7" />
  <rect x="380" y="73" width="40" height="14" rx="7" fill="#ffffff" fill-opacity="0.7" />
  <rect x="450" y="70" width="70" height="20" rx="10" fill="#ffffff" />
  
  <!-- חלק של hero -->
  <rect x="50" y="110" width="500" height="120" fill="#eef2ff" />
  <rect x="80" y="140" width="200" height="25" rx="4" fill="#2563eb" fill-opacity="0.9" />
  <rect x="80" y="175" width="180" height="10" rx="5" fill="#64748b" />
  <rect x="80" y="195" width="150" height="10" rx="5" fill="#64748b" />
  <rect x="80" y="215" width="100" height="25" rx="12.5" fill="#2563eb" />
  <rect x="190" y="215" width="100" height="25" rx="12.5" fill="#ffffff" stroke="#2563eb" stroke-width="2" />
  <rect x="350" y="130" width="150" height="80" rx="8" fill="#ffffff" stroke="#e2e8f0" stroke-width="2" />
  
  <!-- חלק של services -->
  <rect x="80" y="260" width="150" height="15" rx="3" fill="#1e293b" />
  <rect x="80" y="280" width="100" height="8" rx="4" fill="#64748b" />
  
  <!-- כרטיסיות שירות -->
  <rect x="80" y="300" width="80" height="40" rx="4" fill="#ffffff" stroke="#e2e8f0" stroke-width="1" />
  <rect x="180" y="300" width="80" height="40" rx="4" fill="#ffffff" stroke="#e2e8f0" stroke-width="1" />
  <rect x="280" y="300" width="80" height="40" rx="4" fill="#ffffff" stroke="#e2e8f0" stroke-width="1" />
  <rect x="380" y="300" width="80" height="40" rx="4" fill="#ffffff" stroke="#e2e8f0" stroke-width="1" />
</svg>