<svg xmlns="http://www.w3.org/2000/svg" viewBox="0 0 400 200">
  <!-- אייקון כרטיס אשראי -->
  <g transform="translate(50, 50)">
    <rect width="120" height="80" rx="10" fill="#1e293b" />
    <rect x="10" y="15" width="40" height="10" rx="5" fill="#f8fafc" fill-opacity="0.7" />
    <rect x="10" y="55" width="100" height="10" rx="5" fill="#f8fafc" fill-opacity="0.5" />
    <rect x="10" y="35" width="20" height="10" rx="5" fill="#f8fafc" fill-opacity="0.6" />
    <rect x="35" y="35" width="20" height="10" rx="5" fill="#f8fafc" fill-opacity="0.6" />
    <rect x="60" y="35" width="20" height="10" rx="5" fill="#f8fafc" fill-opacity="0.6" />
    <rect x="85" y="35" width="20" height="10" rx="5" fill="#f8fafc" fill-opacity="0.6" />
    <circle cx="95" cy="20" r="12" fill="#f59e0b" fill-opacity="0.8" />
    <circle cx="105" cy="20" r="12" fill="#ef4444" fill-opacity="0.8" />
  </g>
  
  <!-- אייקון PayPal -->
  <g transform="translate(250, 50)">
    <rect width="120" height="80" rx="10" fill="#0070ba" />
    <path d="M40,25 Q55,20 60,35 Q65,50 45,55 L40,55 L35,75 L25,75 L40,25" fill="#ffffff" />
    <path d="M55,30 Q70,25 75,40 Q80,55 60,60 L55,60 L50,80 L40,80 L55,30" fill="#ffffff" fill-opacity="0.8" />
    <rect x="30" y="45" width="40" height="5" rx="2.5" fill="#ffffff" fill-opacity="0" />
  </g>
  
  <!-- טקסט הסבר -->
  <text x="110" y="150" font-family="Arial, sans-serif" font-size="12" text-anchor="middle" fill="#64748b">Credit Card</text>
  <text x="310" y="150" font-family="Arial, sans-serif" font-size="12" text-anchor="middle" fill="#64748b">PayPal</text>
</svg>