<svg xmlns="http://www.w3.org/2000/svg" viewBox="0 0 600 400">
  <!-- רקע -->
  <defs>
    <linearGradient id="eventGrad" x1="0%" y1="0%" x2="100%" y2="100%">
      <stop offset="0%" style="stop-color:#4338ca;stop-opacity:1" />
      <stop offset="100%" style="stop-color:#7c3aed;stop-opacity:1" />
    </linearGradient>
  </defs>
  
  <rect width="600" height="400" fill="#f8fafc" />
  
  <!-- הדמיית דף אירוע -->
  <rect x="50" y="50" width="500" height="300" rx="8" fill="#ffffff" stroke="#e2e8f0" stroke-width="2" />
  
  <!-- כותרת האירוע וכיסוי -->
  <rect x="50" y="50" width="500" height="150" rx="8" fill="url(#eventGrad)" />
  <rect x="150" y="95" width="300" height="30" rx="4" fill="#ffffff" fill-opacity="0.9" />
  <rect x="200" y="135" width="200" height="15" rx="7.5" fill="#ffffff" fill-opacity="0.7" />
  <rect x="225" y="160" width="150" height="25" rx="12.5" fill="#ffffff" />
  
  <!-- פרטי האירוע -->
  <rect x="100" y="220" width="400" height="1" fill="#e2e8f0" />
  
  <rect x="100" y="240" width="100" height="15" rx="3" fill="#1e293b" />
  <rect x="100" y="265" width="80" height="10" rx="5" fill="#64748b" />
  <rect x="100" y="285" width="60" height="10" rx="5" fill="#64748b" />
  
  <rect x="250" y="240" width="100" height="15" rx="3" fill="#1e293b" />
  <rect x="250" y="265" width="80" height="10" rx="5" fill="#64748b" />
  <rect x="250" y="285" width="60" height="10" rx="5" fill="#64748b" />
  
  <rect x="400" y="240" width="100" height="15" rx="3" fill="#1e293b" />
  <rect x="400" y="265" width="80" height="10" rx="5" fill="#64748b" />
  <rect x="400" y="285" width="60" height="10" rx="5" fill="#64748b" />
  
  <!-- צורות דקורטיביות על הרקע -->
  <circle cx="480" cy="80" r="15" fill="#ffffff" fill-opacity="0.1" />
  <circle cx="500" cy="110" r="8" fill="#ffffff" fill-opacity="0.1" />
  <circle cx="70" cy="150" r="10" fill="#ffffff" fill-opacity="0.1" />
  <circle cx="100" cy="110" r="5" fill="#ffffff" fill-opacity="0.1" />
</svg>