<svg xmlns="http://www.w3.org/2000/svg" viewBox="0 0 1200 600">
  <!-- רקע גרדיאנט -->
  <defs>
    <linearGradient id="grad1" x1="0%" y1="0%" x2="100%" y2="100%">
      <stop offset="0%" style="stop-color:#f8fafc;stop-opacity:1" />
      <stop offset="50%" style="stop-color:#eef2ff;stop-opacity:1" />
      <stop offset="100%" style="stop-color:#f0f9ff;stop-opacity:1" />
    </linearGradient>
  </defs>
  
  <!-- רקע -->
  <rect width="1200" height="600" fill="url(#grad1)" />
  
  <!-- צורות דקורטיביות -->
  <circle cx="300" cy="200" r="150" fill="#2563eb" fill-opacity="0.05" />
  <circle cx="900" cy="400" r="200" fill="#7c3aed" fill-opacity="0.05" />
  
  <!-- סמלים של מחשב ופיתוח אתרים -->
  <rect x="200" y="150" width="300" height="200" rx="10" fill="#ffffff" stroke="#e2e8f0" stroke-width="3" />
  <rect x="220" y="180" width="260" height="140" rx="5" fill="#f1f5f9" />
  <rect x="240" y="200" width="100" height="20" rx="5" fill="#2563eb" fill-opacity="0.3" />
  <rect x="240" y="230" width="220" height="10" rx="5" fill="#2563eb" fill-opacity="0.2" />
  <rect x="240" y="250" width="180" height="10" rx="5" fill="#2563eb" fill-opacity="0.2" />
  <rect x="240" y="270" width="200" height="10" rx="5" fill="#2563eb" fill-opacity="0.2" />
  
  <!-- גרפיקה משרדית ודיגיטלית -->
  <rect x="700" y="200" width="300" height="200" rx="20" fill="#ffffff" stroke="#e2e8f0" stroke-width="3" />
  <circle cx="750" cy="230" r="20" fill="#7c3aed" fill-opacity="0.3" />
  <rect x="780" y="220" width="200" height="15" rx="5" fill="#7c3aed" fill-opacity="0.2" />
  <rect x="730" y="260" width="250" height="100" rx="5" fill="#f1f5f9" />
  <polyline points="750,310 780,280 810,330 840,270 880,320" stroke="#2563eb" stroke-width="3" fill="none" />
  <circle cx="750" cy="310" r="5" fill="#2563eb" />
  <circle cx="780" cy="280" r="5" fill="#2563eb" />
  <circle cx="810" cy="330" r="5" fill="#2563eb" />
  <circle cx="840" cy="270" r="5" fill="#2563eb" />
  <circle cx="880" cy="320" r="5" fill="#2563eb" />
</svg>